General
Complete name : The.Godfather.Part.I.1972.BRRip.H264.AAC.5.1ch.Gopo.mp4
Format : MPEG-4
Format profile : Base Media
Codec ID : isom
File size : 2.00 GiB
Duration : 2h 57mn
Overall bit rate : 1 615 Kbps
Encoded date : UTC 2009-11-08 03:35:22
Tagged date : UTC 2009-11-08 03:35:22
Video #1
ID : 1
Format : AVC
Format/Info : Advanced Video Codec
Format profile : High@L4.1
Format settings, CABAC : Yes
Format settings, ReFrames : 4 frames
Codec ID : avc1
Codec ID/Info : Advanced Video Coding
Duration : 2h 57mn
Bit rate mode : Variable
Bit rate : 1 358 Kbps
Maximum bit rate : 4 178 Kbps
Width : 1 280 pixels
Height : 720 pixels
Display aspect ratio : 16:9
Frame rate mode : Constant
Frame rate : 23.976 fps
Resolution : 24 bits
Colorimetry : 4:2:0
Scan type : Progressive
Bits/(Pixel*Frame) : 0.061
Stream size : 1.68 GiB (84%)
Writing library : x264 core 68 r1183M f21daff
Encoding settings : cabac=1 / ref=4 / deblock=1:-1:-1 / analyse=0x3:0x113 / me=umh / subme=7 / psy_rd=1.0:0.0 / mixed_ref=1 / me_range=16 / chroma_me=1 / trellis=2 / 8x8dct=1 / cqm=0 / deadzone=21,11 / chroma_qp_offset=-2 / threads=3 / nr=0 / decimate=1 / mbaff=0 / bframes=3 / b_pyramid=0 / b_adapt=2 / b_bias=0 / direct=3 / wpredb=1 / keyint=250 / keyint_min=25 / scenecut=40 / rc=2pass / bitrate=1358 / ratetol=1.0 / qcomp=0.60 / qpmin=10 / qpmax=51 / qpstep=4 / cplxblur=20.0 / qblur=0.5 / vbv_maxrate=50000 / vbv_bufsize=50000 / ip_ratio=1.40 / pb_ratio=1.30 / aq=1:1.00
Encoded date : UTC 2009-11-07 09:40:12
Tagged date : UTC 2009-11-08 03:39:43
Audio #2
ID : 2
Format : AAC
Format/Info : Advanced Audio Codec
Format version : Version 4
Format profile : LC
Format settings, SBR : No
Codec ID : 40
Duration : 2h 57mn
Bit rate mode : Variable
Bit rate : 253 Kbps
Maximum bit rate : 387 Kbps
Channel(s) : 6 channels
Channel positions : Front: L C R, Rear: L R, LFE
Sampling rate : 48.0 KHz
Resolution : 16 bits
Stream size : 321 MiB (16%)
Encoded date : UTC 2009-11-08 03:38:46
Tagged date : UTC 2009-11-08 03:39:43

PLOT

The story begins as "Don" Vito Corleone, the head of a New York Mafia "family", oversees his daughter's wedding. His beloved son Michael has just come home from the war, but does not intend to become part of his father's business. Through Michael's life the nature of the family business becomes clear. The business of the family is just like the head of the family, kind and benevolent to those who give respect, but given to ruthless violence whenever anything stands against the good of the family. Don Vito lives his life in the way of the old country, but times are changing and some don't want to follow the old ways and look out for community and "family". An up and coming rival of the Corleone family wants to start selling drugs in New York, and needs the Don's influence to further his plan. The clash of the Don's fading old world values and the new ways will demand a terrible price, especially from Michael, all for the sake of the family.

Director: Francis Ford Coppola
CASTING

Marlon Brando ... Don Vito Corleone
Al Pacino ... Michael Corleone
James Caan ... Santino 'Sonny' Corleone
Richard S. Castellano ... Peter Clemenza (as Richard Castellano)
Robert Duvall ... Tom Hagen
Sterling Hayden ... Capt. McCluskey
John Marley ... Jack Woltz
Richard Conte ... Don Emilio Barzini
Al Lettieri ... Virgil 'The Turk' Sollozzo
Diane Keaton ... Kay Adams
Abe Vigoda ... Sal Tessio
Talia Shire ... Connie Corleone Rizzi
Gianni Russo ... Carlo Rizzi
John Cazale ... Fredo Corleone
Rudy Bond ... Don Carmine Cuneo

SOURCE: The.Godfather.Part.I.1972.720p.BluRay.x264-RoSubbed.CzT

----------

General
Complete name : The.Godfather.Part.II.1974.BRRip.H264.AAC.5.1ch.Gopo.mp4
Format : Matroska
File size : 1.99 GiB
Duration : 3h 22mn
Overall bit rate : 1 413 Kbps
Encoded date : UTC 2009-11-09 19:43:05
Writing application : mkvmerge v2.9.8 ('C'est le bon') built on Aug 13 2009 12:49:06
Writing library : libebml v0.7.7 + libmatroska v0.8.1
Video #1
ID : 1
Format : AVC
Format/Info : Advanced Video Codec
Format profile : High@L5.1
Format settings, CABAC : Yes
Format settings, ReFrames : 4 frames
Muxing mode : Container profile=Unknown@5.1
Codec ID : V_MPEG4/ISO/AVC
Duration : 3h 21mn
Nominal bit rate : 1 158 Kbps
Width : 1 280 pixels
Height : 720 pixels
Display aspect ratio : 16:9
Frame rate : 23.976 fps
Resolution : 24 bits
Colorimetry : 4:2:0
Scan type : Progressive
Bits/(Pixel*Frame) : 0.052
Writing library : x264 core 68 r1183M f21daff
Encoding settings : cabac=1 / ref=4 / deblock=1:-1:-1 / analyse=0x3:0x113 / me=umh / subme=8 / psy_rd=1.0:0.0 / mixed_ref=1 / me_range=16 / chroma_me=1 / trellis=2 / 8x8dct=1 / cqm=0 / deadzone=21,11 / chroma_qp_offset=-2 / threads=1 / nr=0 / decimate=1 / mbaff=0 / bframes=3 / b_pyramid=0 / b_adapt=2 / b_bias=0 / direct=3 / wpredb=1 / keyint=250 / keyint_min=25 / scenecut=40 / rc=2pass / bitrate=1158 / ratetol=1.0 / qcomp=0.60 / qpmin=10 / qpmax=51 / qpstep=4 / cplxblur=20.0 / qblur=0.5 / vbv_maxrate=50000 / vbv_bufsize=50000 / ip_ratio=1.40 / pb_ratio=1.30 / aq=1:1.00
Audio #2
ID : 2
Format : AAC
Format/Info : Advanced Audio Codec
Format version : Version 4
Format profile : LC
Format settings, SBR : No
Codec ID : A_AAC
Duration : 3h 22mn
Channel(s) : 6 channels
Channel positions : Front: L C R, Rear: L R, LFE
Sampling rate : 48.0 KHz
Resolution : 16 bits

PLOT

The continuing saga of the Corleone crime family tells the story of a young Vito Corleone growing up in Sicily and in 1910s New York; and follows Michael Corleone in the 1950s as he attempts to expand the family business into Las Vegas, Hollywood and Cuba.

Director: Francis Ford Coppola
CASTING

Al Pacino ... Don Michael Corleone
Robert Duvall ... Tom Hagen
Diane Keaton ... Kay Corleone
Robert De Niro ... Vito Corleone (as Robert DeNiro)
John Cazale ... Fredo Corleone
Talia Shire ... Connie Corleone
Lee Strasberg ... Hyman Roth
Michael V. Gazzo ... Frankie Pentangeli
G.D. Spradlin ... Senator Pat Geary
Richard Bright ... Al Neri
Gastone Moschin ... Don Fanucci (as Gaston Moschin)
Tom Rosqui ... Rocco Lampone
Bruno Kirby ... Young Peter Clemenza (as B. Kirby Jr.)
Frank Sivero ... Genco Abbandando
Francesca De Sapio ... Young Mama Corleone (as Francesca de Sapio)

SOURCE: The.Godfather.Part.II.1974.720p.BluRay.x264-RoSubbed.CzT

----------

General
Complete name : The.Godfather.Part.III.1990.BRRip.H264.AAC.5.1ch.Gopo.mp4
Format : MPEG-4
Format profile : Base Media
Codec ID : isom
File size : 2.00 GiB
Duration : 2h 50mn
Overall bit rate : 1 678 Kbps
Encoded date : UTC 2009-11-09 21:10:37
Tagged date : UTC 2009-11-09 21:10:37
Video #1
ID : 1
Format : AVC
Format/Info : Advanced Video Codec
Format profile : High@L4.1
Format settings, CABAC : Yes
Format settings, ReFrames : 4 frames
Codec ID : avc1
Codec ID/Info : Advanced Video Coding
Duration : 2h 50mn
Bit rate mode : Variable
Bit rate : 1 375 Kbps
Maximum bit rate : 5 220 Kbps
Width : 1 280 pixels
Height : 720 pixels
Display aspect ratio : 16:9
Frame rate mode : Constant
Frame rate : 23.976 fps
Resolution : 24 bits
Colorimetry : 4:2:0
Scan type : Progressive
Bits/(Pixel*Frame) : 0.062
Stream size : 1.64 GiB (82%)
Writing library : x264 core 68 r1183M f21daff
Encoding settings : cabac=1 / ref=4 / deblock=1:-1:-1 / analyse=0x3:0x113 / me=umh / subme=7 / psy_rd=1.0:0.0 / mixed_ref=1 / me_range=16 / chroma_me=1 / trellis=2 / 8x8dct=1 / cqm=0 / deadzone=21,11 / chroma_qp_offset=-2 / threads=3 / nr=0 / decimate=1 / mbaff=0 / bframes=3 / b_pyramid=0 / b_adapt=2 / b_bias=0 / direct=3 / wpredb=1 / keyint=250 / keyint_min=25 / scenecut=40 / rc=2pass / bitrate=1375 / ratetol=1.0 / qcomp=0.60 / qpmin=10 / qpmax=51 / qpstep=4 / cplxblur=20.0 / qblur=0.5 / vbv_maxrate=50000 / vbv_bufsize=50000 / ip_ratio=1.40 / pb_ratio=1.30 / aq=1:1.00
Encoded date : UTC 2009-11-09 02:33:54
Tagged date : UTC 2009-11-09 21:16:39
Audio #2
ID : 2
Format : AAC
Format/Info : Advanced Audio Codec
Format version : Version 4
Format profile : LC
Format settings, SBR : No
Codec ID : 40
Duration : 2h 50mn
Bit rate mode : Variable
Bit rate : 299 Kbps
Maximum bit rate : 386 Kbps
Channel(s) : 6 channels
Channel positions : Front: L C R, Rear: L R, LFE
Sampling rate : 48.0 KHz
Resolution : 16 bits
Stream size : 364 MiB (18%)
Encoded date : UTC 2009-11-09 21:14:48
Tagged date : UTC 2009-11-09 21:16:39

PLOT

In the final instalment of the Godfather Trilogy, an aging Don Michael Corleone seeks to legitimize his crime family's interests and remove himself from the violent underworld but is kept back by the ambitions of the young. While he attempts to link the Corleone's finances with the Vatican, Michael must deal with the machinations of a hungrier gangster seeking to upset the existing Mafioso order and a young protoge's love affair with his daughter.

Director: Francis Ford Coppola
CASTING

Al Pacino ... Don Michael Corleone
Diane Keaton ... Kay Adams Michelson
Talia Shire ... Connie Corleone Rizzi
Andy Garcia ... Vincent Mancini
Eli Wallach ... Don Altobello
Joe Mantegna ... Joey Zasa
George Hamilton ... B.J. Harrison
Bridget Fonda ... Grace Hamilton
Sofia Coppola ... Mary Corleone
Raf Vallone ... Cardinal Lamberto
Franc D'Ambrosio ... Anthony Vito Corleone
Donal Donnelly ... Archbishop Gilday
Richard Bright ... Al Neri
Helmut Berger ... Frederick Keinszig
Don Novello ... Dominic Abbandando

SOURCE: The.Godfather.Part.III.1990.720p.BluRay.x264-RoSubbed.CzT

Notes: For best performance I suggest you to use KMPlayer(find it with google) for playback